<svg width="32" height="32" viewBox="0 0 32 32" fill="none" xmlns="http://www.w3.org/2000/svg">
    <path
        d="M20 30.3332H12C4.76001 30.3332 1.66667 27.2398 1.66667 19.9998V11.9998C1.66667 4.75984 4.76001 1.6665 12 1.6665H20C27.24 1.6665 30.3333 4.75984 30.3333 11.9998V19.9998C30.3333 27.2398 27.24 30.3332 20 30.3332ZM12 3.6665C5.85334 3.6665 3.66667 5.85317 3.66667 11.9998V19.9998C3.66667 26.1465 5.85334 28.3332 12 28.3332H20C26.1467 28.3332 28.3333 26.1465 28.3333 19.9998V11.9998C28.3333 5.85317 26.1467 3.6665 20 3.6665H12Z"
        fill="#6496FF" />
    <path
        d="M14.1067 20.7735C13.84 20.7735 13.5867 20.6668 13.4 20.4801L9.62667 16.7068C9.24 16.3201 9.24 15.6801 9.62667 15.2935C10.0133 14.9068 10.6533 14.9068 11.04 15.2935L14.1067 18.3601L20.96 11.5068C21.3467 11.1201 21.9867 11.1201 22.3733 11.5068C22.76 11.8935 22.76 12.5335 22.3733 12.9201L14.8133 20.4801C14.6267 20.6668 14.3733 20.7735 14.1067 20.7735Z"
        fill="#6496FF" />
</svg>