<svg width="200" viewBox="0 0 212 69" fill="none" xmlns="http://www.w3.org/2000/svg" id="logo">
    <g clip-path="url(#clip0_7_72)">
        <path
            d="M175.909 49.0322C173.509 49.0322 171.376 48.5146 169.509 47.4791C167.672 46.4142 166.22 44.9498 165.154 43.0862C164.117 41.2225 163.598 39.0926 163.598 36.6965C163.598 34.2708 164.087 32.1409 165.065 30.3068C166.072 28.4431 167.45 26.9788 169.198 25.9138C170.946 24.8489 172.961 24.3164 175.243 24.3164C177.494 24.3164 179.45 24.834 181.109 25.8695C182.798 26.8752 184.102 28.2805 185.02 30.0849C185.939 31.8893 186.398 33.9453 186.398 36.2527C186.398 36.726 186.25 37.1107 185.954 37.4064C185.658 37.6727 185.272 37.8058 184.798 37.8058H165.909V34.9659H185.154L183.243 36.3415C183.272 34.6258 182.961 33.0874 182.309 31.7267C181.658 30.366 180.724 29.301 179.509 28.5318C178.324 27.7626 176.902 27.3781 175.243 27.3781C173.554 27.3781 172.072 27.7775 170.798 28.5762C169.524 29.3749 168.532 30.4843 167.82 31.9042C167.139 33.2946 166.798 34.892 166.798 36.6965C166.798 38.5009 167.183 40.0983 167.954 41.4888C168.754 42.8792 169.835 43.9736 171.198 44.7724C172.561 45.5711 174.132 45.9704 175.909 45.9704C176.976 45.9704 178.043 45.7929 179.109 45.438C180.206 45.0535 181.08 44.58 181.732 44.018C182.058 43.7518 182.428 43.6187 182.843 43.6187C183.258 43.5892 183.613 43.6925 183.909 43.9293C184.294 44.2843 184.487 44.6687 184.487 45.083C184.517 45.4972 184.354 45.8522 183.998 46.1479C183.02 46.9761 181.776 47.6715 180.265 48.2334C178.754 48.7659 177.302 49.0322 175.909 49.0322Z"
            fill="black" />
        <path
            d="M156.516 48.8103C154.946 48.8103 153.538 48.4404 152.294 47.701C151.079 46.9615 150.116 45.9556 149.405 44.6836C148.694 43.3819 148.338 41.903 148.338 40.2463V18.5479C148.338 18.045 148.487 17.6309 148.783 17.3055C149.109 16.9801 149.524 16.8174 150.027 16.8174C150.531 16.8174 150.946 16.9801 151.272 17.3055C151.598 17.6309 151.761 18.045 151.761 18.5479V40.2463C151.761 41.755 152.205 42.9974 153.094 43.9736C153.983 44.9203 155.124 45.3936 156.516 45.3936H157.716C158.19 45.3936 158.576 45.5562 158.872 45.8817C159.168 46.2072 159.316 46.6212 159.316 47.1241C159.316 47.6271 159.138 48.0411 158.783 48.3666C158.427 48.6623 157.983 48.8103 157.45 48.8103H156.516ZM145.45 28.3987C145.005 28.3987 144.635 28.2656 144.338 27.9994C144.042 27.7036 143.894 27.3486 143.894 26.9344C143.894 26.4907 144.042 26.1357 144.338 25.8695C144.635 25.5737 145.005 25.4257 145.45 25.4257H156.783C157.227 25.4257 157.598 25.5737 157.894 25.8695C158.19 26.1357 158.338 26.4907 158.338 26.9344C158.338 27.3486 158.19 27.7036 157.894 27.9994C157.598 28.2656 157.227 28.3987 156.783 28.3987H145.45Z"
            fill="black" />
        <path
            d="M136.602 48.8103C136.069 48.8103 135.64 48.6623 135.314 48.3666C135.017 48.0411 134.869 47.6122 134.869 47.0797V26.2688C134.869 25.7363 135.017 25.3221 135.314 25.0264C135.64 24.7009 136.069 24.5383 136.602 24.5383C137.106 24.5383 137.506 24.7009 137.802 25.0264C138.128 25.3221 138.291 25.7363 138.291 26.2688V47.0797C138.291 47.6122 138.128 48.0411 137.802 48.3666C137.506 48.6623 137.106 48.8103 136.602 48.8103ZM136.558 19.9235C135.906 19.9235 135.343 19.6868 134.869 19.2135C134.395 18.7402 134.158 18.1634 134.158 17.483C134.158 16.7434 134.395 16.1666 134.869 15.7524C135.373 15.3087 135.951 15.0868 136.602 15.0868C137.225 15.0868 137.773 15.3087 138.247 15.7524C138.751 16.1666 139.002 16.7434 139.002 17.483C139.002 18.1634 138.765 18.7402 138.291 19.2135C137.817 19.6868 137.24 19.9235 136.558 19.9235Z"
            fill="black" />
        <path
            d="M118.688 49.0322C116.94 49.0322 115.207 48.7364 113.488 48.1447C111.77 47.553 110.377 46.6655 109.311 45.4823C108.985 45.1273 108.852 44.728 108.911 44.2843C108.97 43.8405 109.192 43.456 109.577 43.1306C109.992 42.8348 110.422 42.7163 110.866 42.7756C111.311 42.8348 111.681 43.0269 111.977 43.3524C112.688 44.1806 113.622 44.8167 114.777 45.2605C115.963 45.7042 117.266 45.9261 118.688 45.9261C120.881 45.9261 122.466 45.5562 123.444 44.8167C124.422 44.0475 124.926 43.1306 124.955 42.0656C124.955 41.0007 124.452 40.1281 123.444 39.4476C122.437 38.7376 120.777 38.1903 118.466 37.8058C115.474 37.3326 113.281 36.5041 111.888 35.3209C110.496 34.1377 109.8 32.7324 109.8 31.1055C109.8 29.5968 110.2 28.3395 111 27.3338C111.8 26.3281 112.866 25.5737 114.2 25.0707C115.533 24.5678 117 24.3164 118.6 24.3164C120.585 24.3164 122.288 24.6565 123.711 25.337C125.163 26.0174 126.333 26.9344 127.222 28.0881C127.518 28.4726 127.637 28.872 127.577 29.2862C127.518 29.7004 127.281 30.0405 126.866 30.3068C126.511 30.5138 126.096 30.5879 125.622 30.5286C125.177 30.4399 124.792 30.218 124.466 29.863C123.726 29.0051 122.866 28.3839 121.888 27.9994C120.911 27.5851 119.785 27.3781 118.511 27.3781C116.881 27.3781 115.577 27.7183 114.6 28.3987C113.622 29.0495 113.133 29.8779 113.133 30.8836C113.133 31.5641 113.311 32.1556 113.666 32.6585C114.052 33.1615 114.688 33.6052 115.577 33.9897C116.496 34.3742 117.77 34.6997 119.4 34.9659C121.622 35.3209 123.37 35.8534 124.644 36.5634C125.948 37.2438 126.866 38.0572 127.4 39.0039C127.963 39.9208 128.244 40.9268 128.244 42.0212C128.244 43.4117 127.829 44.6392 127 45.7042C126.2 46.7396 125.074 47.553 123.622 48.1447C122.2 48.7364 120.555 49.0322 118.688 49.0322Z"
            fill="black" />
        <path
            d="M93.9447 48.8103C93.2336 48.8103 92.7004 48.4258 92.3449 47.6566L82.478 26.7569C82.3002 26.3724 82.2856 25.9877 82.4338 25.6032C82.5818 25.2187 82.8782 24.9228 83.3227 24.7158C83.7373 24.5088 84.1373 24.479 84.5224 24.627C84.9078 24.775 85.204 25.0412 85.4113 25.4257L94.878 45.8817H93.0558L102.389 25.4257C102.567 25.0115 102.863 24.7453 103.278 24.627C103.722 24.479 104.152 24.4939 104.567 24.6714C104.982 24.8784 105.263 25.189 105.411 25.6032C105.56 25.9877 105.545 26.3576 105.367 26.7125L95.6336 47.6566C95.278 48.4258 94.7151 48.8103 93.9447 48.8103Z"
            fill="black" />
        <path
            d="M70.2235 49.0322C67.8235 49.0322 65.6902 48.5146 63.8235 47.4791C61.9866 46.4142 60.5346 44.9498 59.468 43.0862C58.4311 41.2225 57.9124 39.0926 57.9124 36.6965C57.9124 34.2708 58.4013 32.1409 59.3791 30.3068C60.3866 28.4431 61.7644 26.9788 63.5124 25.9138C65.2606 24.8489 67.2755 24.3164 69.5569 24.3164C71.8089 24.3164 73.7644 24.834 75.4235 25.8695C77.1124 26.8752 78.4162 28.2805 79.3346 30.0849C80.2533 31.8893 80.7124 33.9453 80.7124 36.2527C80.7124 36.726 80.5644 37.1107 80.268 37.4064C79.9718 37.6727 79.5866 37.8058 79.1124 37.8058H60.2235V34.9659H79.468L77.5569 36.3415C77.5866 34.6258 77.2755 33.0874 76.6235 31.7267C75.9718 30.366 75.0384 29.301 73.8235 28.5318C72.6384 27.7626 71.2162 27.3781 69.5569 27.3781C67.868 27.3781 66.3866 27.7775 65.1124 28.5762C63.8384 29.3749 62.8457 30.4843 62.1346 31.9042C61.4533 33.2946 61.1124 34.892 61.1124 36.6965C61.1124 38.5009 61.4977 40.0983 62.268 41.4888C63.068 42.8792 64.1495 43.9736 65.5124 44.7724C66.8755 45.5711 68.4458 45.9704 70.2235 45.9704C71.2902 45.9704 72.3569 45.7929 73.4235 45.438C74.52 45.0535 75.394 44.58 76.0457 44.018C76.3717 43.7518 76.7422 43.6187 77.1569 43.6187C77.5717 43.5892 77.9273 43.6925 78.2235 43.9293C78.6089 44.2843 78.8013 44.6687 78.8013 45.083C78.8311 45.4972 78.668 45.8522 78.3124 46.1479C77.3346 46.9761 76.0902 47.6715 74.5791 48.2334C73.068 48.7659 71.6162 49.0322 70.2235 49.0322Z"
            fill="black" />
        <path
            d="M38.8444 49.0322C36.5038 49.0322 34.4 48.4997 32.5333 47.4347C30.6667 46.3403 29.1851 44.8611 28.0889 42.9974C27.0222 41.1338 26.4889 39.0187 26.4889 36.6521C26.4889 34.3152 27.0073 32.2148 28.0444 30.3511C29.1111 28.4875 30.5482 27.0232 32.3556 25.9582C34.1629 24.8637 36.2073 24.3164 38.4889 24.3164C40.474 24.3164 42.2667 24.7453 43.8667 25.6032C45.4667 26.4314 46.7556 27.5408 47.7333 28.9312V15.8855C47.7333 15.3531 47.8962 14.9389 48.2222 14.6431C48.5482 14.3177 48.9629 14.155 49.4667 14.155C49.9704 14.155 50.3851 14.3177 50.7111 14.6431C51.0371 14.9389 51.2 15.3531 51.2 15.8855V36.8296C51.1407 39.137 50.5629 41.2225 49.4667 43.0862C48.4 44.9203 46.9333 46.3698 45.0667 47.4347C43.2296 48.4997 41.1556 49.0322 38.8444 49.0322ZM38.8444 45.926C40.5629 45.926 42.0889 45.5267 43.4222 44.728C44.7851 43.8998 45.8518 42.7904 46.6222 41.4C47.4222 40.0096 47.8222 38.427 47.8222 36.6521C47.8222 34.9067 47.4222 33.339 46.6222 31.9486C45.8518 30.5286 44.7851 29.4193 43.4222 28.6206C42.0889 27.8219 40.5629 27.4225 38.8444 27.4225C37.1556 27.4225 35.6296 27.8219 34.2667 28.6206C32.9038 29.4193 31.8222 30.5286 31.0222 31.9486C30.2222 33.339 29.8222 34.9067 29.8222 36.6521C29.8222 38.427 30.2222 40.0096 31.0222 41.4C31.8222 42.7904 32.9038 43.8998 34.2667 44.728C35.6296 45.5267 37.1556 45.926 38.8444 45.926Z"
            fill="black" />
        <path fill-rule="evenodd" clip-rule="evenodd"
            d="M1.77775 3.4389C2.69822 3.4389 3.44442 4.1839 3.44442 5.10289V59.8758C3.44442 63.2785 5.99873 65.672 9.24997 65.672H31.6666C32.5871 65.672 33.3333 66.417 33.3333 67.336C33.3333 68.255 32.5871 69 31.6666 69H9.24997C4.22344 69 0.111084 65.1813 0.111084 59.8758V5.10289C0.111084 4.1839 0.857275 3.4389 1.77775 3.4389Z"
            fill="black" />
        <path fill-rule="evenodd" clip-rule="evenodd"
            d="M210.222 65.672C209.302 65.672 208.556 64.927 208.556 64.008V9.23513C208.556 5.83245 206.001 3.43891 202.75 3.43891H180.333C179.413 3.43891 178.667 2.69393 178.667 1.77492C178.667 0.855921 179.413 0.110931 180.333 0.110931H202.75C207.776 0.110931 211.889 3.9296 211.889 9.23513V64.008C211.889 64.927 211.143 65.672 210.222 65.672Z"
            fill="black" />
    </g>
    <defs>
        <clipPath id="clip0_7_72">
            <rect width="212" height="69" fill="white" />
        </clipPath>
    </defs>
</svg>