<svg width="24" height="25" viewBox="0 0 24 25" fill="none" xmlns="http://www.w3.org/2000/svg">
    <path
        d="M8.90998 21.4718C8.71998 21.4718 8.52998 21.4018 8.37998 21.2518C8.08998 20.9618 8.08998 20.4818 8.37998 20.1918L14.9 13.6718C15.38 13.1918 15.38 12.4118 14.9 11.9318L8.37998 5.41178C8.08998 5.12178 8.08998 4.64178 8.37998 4.35178C8.66998 4.06178 9.14998 4.06178 9.43998 4.35178L15.96 10.8718C16.47 11.3818 16.76 12.0718 16.76 12.8018C16.76 13.5318 16.48 14.2218 15.96 14.7318L9.43998 21.2518C9.28998 21.3918 9.09998 21.4718 8.90998 21.4718Z"
        fill="#292D32" />
</svg>